<?xml version="1.0" encoding="UTF-8" standalone="no"?>
<!-- Created with Inkscape (http://www.inkscape.org/) -->

<svg
   xmlns:dc="http://purl.org/dc/elements/1.1/"
   xmlns:cc="http://creativecommons.org/ns#"
   xmlns:rdf="http://www.w3.org/1999/02/22-rdf-syntax-ns#"
   xmlns:svg="http://www.w3.org/2000/svg"
   xmlns="http://www.w3.org/2000/svg"
   xmlns:sodipodi="http://sodipodi.sourceforge.net/DTD/sodipodi-0.dtd"
   xmlns:inkscape="http://www.inkscape.org/namespaces/inkscape"
   width="32px"
   height="32px"
   id="svg2985"
   version="1.1"
   inkscape:version="0.48.4 r9939"
   sodipodi:docname="Neues Dokument 2">
  <defs
     id="defs2987" />
  <sodipodi:namedview
     id="base"
     pagecolor="#ffffff"
     bordercolor="#666666"
     borderopacity="1.0"
     inkscape:pageopacity="0.0"
     inkscape:pageshadow="2"
     inkscape:zoom="11.313708"
     inkscape:cx="18.473276"
     inkscape:cy="15.147999"
     inkscape:current-layer="layer1"
     showgrid="true"
     inkscape:grid-bbox="true"
     inkscape:document-units="px"
     inkscape:window-width="1920"
     inkscape:window-height="1176"
     inkscape:window-x="0"
     inkscape:window-y="24"
     inkscape:window-maximized="1" />
  <metadata
     id="metadata2990">
    <rdf:RDF>
      <cc:Work
         rdf:about="">
        <dc:format>image/svg+xml</dc:format>
        <dc:type
           rdf:resource="http://purl.org/dc/dcmitype/StillImage" />
        <dc:title></dc:title>
      </cc:Work>
    </rdf:RDF>
  </metadata>
  <g
     id="layer1"
     inkscape:label="Layer 1"
     inkscape:groupmode="layer">
    <path
       sodipodi:type="arc"
       style="fill:#ff0000"
       id="path2999"
       sodipodi:cx="18.208"
       sodipodi:cy="6.5883498"
       sodipodi:rx="10.341436"
       sodipodi:ry="10.650796"
       d="m 28.549437,6.5883498 a 10.341436,10.650796 0 1 1 -4e-5,-0.029488"
       sodipodi:start="0"
       sodipodi:end="6.2804167"
       sodipodi:open="true"
       transform="translate(2.7400388,4.5961941)" />
    <path
       style="fill:#ff0000;stroke:#000000;stroke-width:1px;stroke-linecap:butt;stroke-linejoin:miter;stroke-opacity:1"
       d="m 16.44025,18.123001 c -0.02946,0.02946 -0.05112,0.06976 -0.08839,0.08839 -0.121916,0.06096 -0.07906,-0.107041 -0.176776,0.08839 -0.01318,0.02635 0.02083,0.06756 0,0.08839 -0.04658,0.04659 -0.130197,0.0418 -0.176777,0.08839 -0.04659,0.04659 -0.04181,0.130196 -0.08839,0.176776 -0.04659,0.04659 -0.121957,0.05185 -0.176777,0.08839 -0.03467,0.02311 -0.05893,0.05893 -0.08839,0.08839 -0.06904,0.06904 -0.214315,0.188895 -0.265165,0.265165 -0.03655,0.05482 -0.0418,0.130187 -0.08839,0.176777 -0.04659,0.04659 -0.130187,0.04181 -0.176777,0.08839 -0.02083,0.02084 0.02083,0.06756 0,0.08839 -0.04658,0.04659 -0.124076,0.04886 -0.176776,0.08839 -0.123142,0.09236 -0.242043,0.242042 -0.353554,0.353553 -0.02946,0.02946 -0.05112,0.06976 -0.08839,0.08839 -0.02635,0.01318 -0.06756,-0.02083 -0.08839,0 -0.344958,0.344955 0.02046,0.04747 -0.08839,0.265165 -0.01864,0.03727 -0.05893,0.05893 -0.08839,0.08839 -0.08839,0.08839 -0.176775,0.176775 -0.265165,0.265165 -0.02946,0.02946 -0.06528,0.05372 -0.08839,0.08839 -0.03654,0.05482 -0.05893,0.117857 -0.08839,0.176777 -0.02946,0.02946 -0.06528,0.05372 -0.08839,0.08839 -0.08587,0.128806 -0.05518,0.184105 -0.176777,0.265165 -0.225849,0.150566 -0.162401,0.01029 -0.353553,0.265165 -0.03953,0.0527 -0.0418,0.130196 -0.08839,0.176776 -0.158628,0.158629 -0.419541,0.253964 -0.618718,0.353554 -0.05893,0.02946 -0.117847,0.05893 -0.176777,0.08839 -0.05893,0.02947 -0.130196,0.04181 -0.176776,0.08839 -0.02083,0.02084 0.02083,0.06756 0,0.08839 -0.09317,0.09317 -0.248144,0.09772 -0.353554,0.176776 -0.06667,0.05 -0.117856,0.117847 -0.176776,0.176777 -0.05893,0.05893 -0.117847,0.117847 -0.176777,0.176777 -0.117851,0.117851 -0.249438,0.223408 -0.353554,0.353553 -0.06636,0.08295 -0.101656,0.190045 -0.176776,0.265165 -0.07512,0.07512 -0.190045,0.101657 -0.265165,0.176777 -0.07512,0.07512 -0.110417,0.182215 -0.176777,0.265165 -0.05206,0.06507 -0.117847,0.117847 -0.176777,0.176777 -0.05892,0.05893 -0.111706,0.124716 -0.176776,0.176776 -0.2208372,0.17667 -0.4808973,0.272285 -0.7071066,0.441942 -0.1,0.075 -0.1767771,0.176775 -0.2651651,0.265165 -0.069039,0.06904 -0.214318,0.188895 -0.265165,0.265165 -0.036544,0.05482 -0.033572,0.140237 -0.088388,0.176777 -0.049029,0.03269 -0.1208747,-0.01863 -0.1767767,0 -0.039528,0.01318 -0.058925,0.05893 -0.088388,0.08839 -0.088388,0.08839 -0.1901651,0.165165 -0.2651651,0.265165 -0.039528,0.0527 -0.051844,0.121957 -0.088388,0.176777 -0.1353736,0.203057 -0.050487,-0.0379 -0.265165,0.176777 -0.00566,0.0057 -0.1658007,0.337093 -0.1767767,0.353553 -0.081064,0.121597 -0.1363584,0.09091 -0.2651651,0.176777 -0.034668,0.02311 -0.058925,0.05893 -0.088388,0.08839 -0.029462,0.02946 -0.065276,0.05372 -0.088388,0.08839 -0.036544,0.05482 -0.07241,0.112867 -0.088388,0.176777 -0.014292,0.05717 0.032686,0.127747 0,0.176777 -0.036544,0.05482 -0.1219607,0.05185 -0.1767767,0.08839 -0.034668,0.02311 -0.053719,0.06528 -0.088388,0.08839 -0.054816,0.03655 -0.1219607,0.05185 -0.1767767,0.08839 -0.034668,0.02311 -0.053719,0.06528 -0.088388,0.08839 -0.080742,0.05383 -0.2145001,0.07545 -0.2651651,0.176777 -0.013176,0.02635 0.024515,0.07205 0,0.08839 -0.077522,0.05168 -0.181832,0.04672 -0.265165,0.08839 -0.078342,0.03917 -0.184704,0.211525 -0.265165,0.265165 -0.054816,0.03655 -0.1178517,0.05893 -0.1767767,0.08839 -0.029462,0 -0.062036,-0.01318 -0.088388,0 -0.037268,0.01864 -0.058925,0.05893 -0.088388,0.08839 -0.069039,0.06904 -0.1888951,0.214315 -0.2651651,0.265165 -0.4465208,0.297682 -0.00205,6.8e-4 -0.265165,0.08839 -0.125,0.04167 -0.2257259,0.144816 -0.3535534,0.176776 -0.057166,0.01429 -0.1189957,-0.01156 -0.1767767,0 -0.09136,0.01827 -0.1738051,0.07012 -0.2651651,0.08839 -0.057781,0.01156 -0.1196107,-0.01429 -0.1767767,0 -0.063914,0.01598 -0.1128626,0.07241 -0.1767766,0.08839 -0.069528,0.01738 -0.4384131,0 -0.5303301,0 -0.3240906,0 -0.6481812,0 -0.9722719,0 -0.2062394,0 -0.4124789,0 -0.6187184,0 -0.088388,0 -0.179416,-0.02144 -0.265165,0 -0.063914,0.01598 -0.1108957,0.08839 -0.1767767,0.08839 -0.029463,0 0,-0.05893 0,-0.08839 0,-0.207287 0.020834,0.04167 -0.088388,-0.176777 -0.013176,-0.02635 0.020833,-0.06756 0,-0.08839 -0.1828787,-0.18288 0.00715,0.279461 -0.1767767,-0.08839 -0.0131762,-0.02635 0,-0.05893 0,-0.08839 0,-0.05892 -0.0263523,-0.124076 0,-0.176776 0.0131762,-0.02635 0.0675554,0.02083 0.0883884,0 8.43e-5,-8.5e-5 -1.336e-4,-0.264765 0,-0.265165 0.013176,-0.03953 0.069754,-0.05112 0.088388,-0.08839 0.017523,-0.03504 -0.01807,-0.247095 0,-0.265165 0.020833,-0.02083 0.062036,0.01318 0.088388,0 0.037955,-0.01898 0.3520834,-0.351353 0.3535534,-0.353553 0.016343,-0.02452 -0.00932,-0.06044 0,-0.08839 0.020833,-0.0625 0.058925,-0.117857 0.088388,-0.176777 0,-0.05893 -0.011556,-0.118997 0,-0.176777 0.076818,-0.384092 0.056426,-0.163623 0.2651651,-0.441942 0.039528,-0.0527 0.058925,-0.117856 0.088388,-0.176776 0.058926,-0.117851 0.1178507,-0.235703 0.1767767,-0.353554 0.029463,-0.05893 0.04886,-0.124076 0.088388,-0.176776 0.05,-0.06667 0.1395087,-0.102237 0.1767767,-0.176777 0.026352,-0.0527 -0.014291,-0.119607 0,-0.176777 0.014216,-0.05686 0.2274711,-0.46751 0.2651651,-0.53033 0.054655,-0.09109 0.1104157,-0.182215 0.1767767,-0.265165 0.052058,-0.06507 0.1395087,-0.102237 0.1767767,-0.176777 0.026352,-0.0527 -0.032686,-0.127746 0,-0.176776 0.036544,-0.05482 0.1240717,-0.04886 0.1767767,-0.08839 0.066667,-0.05 0.1267767,-0.110106 0.1767767,-0.176776 0.039528,-0.0527 0.04886,-0.124077 0.088388,-0.176777 0.075,-0.1 0.1767771,-0.176775 0.2651651,-0.265165 0.058925,-0.05893 0.1178516,-0.117847 0.1767766,-0.176777 0.029462,-0.02947 0.053719,-0.06528 0.088388,-0.08839 0.054816,-0.03655 0.1202847,-0.05449 0.1767767,-0.08839 0.6246584,-0.374794 -0.1397688,0.02569 0.6187184,-0.353554 0.1178512,-0.05892 0.2481442,-0.09772 0.3535534,-0.176777 0.1333334,-0.1 0.2357023,-0.235702 0.3535534,-0.353553 0.2857143,-0.285714 0.4213925,-0.421392 0.7071068,-0.707107 0.2632464,-0.263246 0.5215057,-0.56773 0.8838835,-0.707106 0.194447,-0.07479 0.4264107,-0.0083 0.6187184,-0.08839 0.174142,-0.07256 0.2801724,-0.256493 0.4419417,-0.353553 0.2383869,-0.143032 0.7336765,-0.247511 0.9722719,-0.353554 0.097074,-0.04314 0.17015,-0.129266 0.265165,-0.176776 0.1666667,-0.08334 0.3705457,-0.08091 0.5303301,-0.176777 0.071458,-0.04287 0.1053167,-0.133897 0.1767767,-0.176777 0.159784,-0.09587 0.363663,-0.09345 0.53033,-0.176776 0.190029,-0.09502 0.335049,-0.269864 0.53033,-0.353554 0.111656,-0.04785 0.238309,-0.04997 0.353554,-0.08839 0.0625,-0.02083 0.117856,-0.05893 0.176776,-0.08839 0.05893,-0.02946 0.120287,-0.05449 0.176777,-0.08839 0.09109,-0.05465 0.170145,-0.129267 0.265165,-0.176777 0.08333,-0.04167 0.189345,-0.03424 0.265165,-0.08839 0.378582,-0.270415 0.572608,-0.762905 1.06066,-0.883883 -0.147314,-0.294628 -0.08839,-0.353554 -0.353553,-0.441942 -0.02795,-0.0093 -0.06204,0.01318 -0.08839,0 -0.03727,-0.01863 -0.05112,-0.06976 -0.08839,-0.08839 -0.02635,-0.01318 -0.06755,0.02083 -0.08839,0 -0.02083,-0.02083 0.02083,-0.06755 0,-0.08839 -0.02083,-0.02083 -0.05893,0 -0.08839,0 -0.02946,0 -0.05893,0 -0.08839,0 -0.03981,0 -0.238265,0.01345 -0.265165,0 -0.02347,-0.01173 -0.253431,-0.241697 -0.265165,-0.265165 -0.01318,-0.02635 0.01318,-0.06204 0,-0.08839 -0.01863,-0.03727 -0.06975,-0.05112 -0.08839,-0.08839 -0.02635,-0.0527 0.04167,-0.13511 0,-0.176776 -0.02083,-0.02083 -0.06756,0.02083 -0.08839,0 -0.01807,-0.01807 0.01752,-0.23012 0,-0.265165 -0.01863,-0.03727 -0.06975,-0.05112 -0.08839,-0.08839 -0.01318,-0.02635 0.02083,-0.06755 0,-0.08839 -0.02083,-0.02083 -0.06756,0.02083 -0.08839,0 -0.02737,-0.02737 0.02737,-0.414572 0,-0.441942 -0.02083,-0.02083 -0.06756,0.02083 -0.08839,0 -0.04419,-0.04419 0.04419,-0.220971 0,-0.265165 -0.02083,-0.02083 -0.06755,0.02083 -0.08839,0 -0.04167,-0.04167 0.04167,-0.13511 0,-0.176776 -0.02083,-0.02083 -0.06755,0.02083 -0.08839,0 -0.02127,-0.02127 0.02127,-0.332285 0,-0.353554 -0.02083,-0.02083 -0.06756,0.02083 -0.08839,0 -0.04419,-0.04419 0.04419,-0.220971 0,-0.265165 -0.02083,-0.02083 -0.06756,0.02083 -0.08839,0 -0.01807,-0.01807 0.01752,-0.23012 0,-0.265165 -0.01863,-0.03727 -0.06975,-0.05112 -0.08839,-0.08839 -0.01598,-0.03196 0,-0.380464 0,-0.441942 0,-0.147314 0,-0.294628 0,-0.441942 0,-0.02946 0.02083,-0.06756 0,-0.08839 -0.02083,-0.02083 -0.06756,0.02083 -0.08839,0 -0.02083,-0.02083 0.01318,-0.06204 0,-0.08839 -0.01863,-0.03727 -0.06975,-0.05112 -0.08839,-0.08839 -0.01752,-0.03505 0.01807,-0.247095 0,-0.265165 -0.02083,-0.02083 -0.06756,0.02083 -0.08839,0 -0.02083,-0.02083 0,-0.05892 0,-0.08839 0,-0.02946 -0.02083,-0.06755 0,-0.08839 0.02083,-0.02083 0.06755,0.02083 0.08839,0 0.02083,-0.02083 0,-0.05893 0,-0.08839 0,-0.05808 0.01662,-0.215296 0,-0.265165 -0.02083,-0.0625 -0.06756,-0.114277 -0.08839,-0.176777 -0.0093,-0.02795 0.01318,-0.06204 0,-0.08839 -0.01863,-0.03727 -0.06975,-0.05112 -0.08839,-0.08839 -0.02635,-0.0527 0.02635,-0.124072 0,-0.176777 -0.01863,-0.03727 -0.06975,-0.05112 -0.08839,-0.08839 -0.02819,-0.05638 0.02363,-0.418312 0,-0.441942 -0.02083,-0.02083 -0.06756,0.02083 -0.08839,0 -0.0036,-0.0036 0,-0.321094 0,-0.353553 0,-0.324091 0,-0.648182 0,-0.9722723 0,-0.04622 0.01162,-0.3303124 0,-0.3535534 -0.01863,-0.037268 -0.06975,-0.051121 -0.08839,-0.088388 -0.01598,-0.031964 0,-0.3804641 0,-0.4419418 0,-0.061478 -0.01598,-0.4099775 0,-0.4419417 0.01863,-0.037268 0.06975,-0.051121 0.08839,-0.088388 0.02608,-0.052151 -0.02027,-0.2043686 0,-0.265165 0.02083,-0.0625 0.06755,-0.1142767 0.08839,-0.1767767 0.0093,-0.027951 -0.0093,-0.060437 0,-0.088388 0.02083,-0.0625 0.06756,-0.1142767 0.08839,-0.1767767 0.0093,-0.027951 -0.01318,-0.062036 0,-0.088388 0.01863,-0.037268 0.06975,-0.05112 0.08839,-0.088388 0.01318,-0.026352 -0.02083,-0.067555 0,-0.088388 0.02083,-0.020833 0.07521,0.026352 0.08839,0 0.0527,-0.1054092 -0.0527,-0.2481441 0,-0.3535534 0.01318,-0.026352 0.06756,0.020833 0.08839,0 0.02083,-0.020833 -0.01318,-0.062036 0,-0.088388 0.04706,-0.094118 0.129718,-0.082659 0.176777,-0.1767767 0.01318,-0.026352 -0.02083,-0.067555 0,-0.088388 0.02083,-0.020833 0.06756,0.020833 0.08839,0 0.04167,-0.041667 -0.04167,-0.13511 0,-0.1767767 0.02083,-0.020833 0.06756,0.020833 0.08839,0 0.02083,-0.020833 -0.01318,-0.062036 0,-0.088388 0.01863,-0.037268 0.06975,-0.051121 0.08839,-0.088388 0.01318,-0.026352 -0.02083,-0.067555 0,-0.088388 0.02083,-0.020833 0.07521,0.026352 0.08839,0 0.03536,-0.070711 -0.03535,-0.1944544 0,-0.265165 0.01863,-0.037268 0.06976,-0.051121 0.08839,-0.088388 0.02635,-0.052705 -0.04167,-0.13511 0,-0.1767767 0.02083,-0.020833 0.06755,0.020833 0.08839,0 0.04167,-0.041667 -0.02635,-0.1240721 0,-0.1767767 0.01863,-0.037268 0.06975,-0.05112 0.08839,-0.088388 0.01318,-0.026352 -0.01318,-0.062036 0,-0.088388 0.0085,-0.016919 0.336634,-0.3450937 0.353554,-0.3535534 0.02635,-0.013176 0.06756,0.020833 0.08839,0 0.02083,-0.020833 -0.01318,-0.062036 0,-0.088388 0.01863,-0.037268 0.06975,-0.051121 0.08839,-0.088388 0.01318,-0.026352 -0.02083,-0.067555 0,-0.088388 0.182879,-0.1828786 -0.0071,0.2794628 0.176777,-0.088388 0.01318,-0.026352 -0.02083,-0.067555 0,-0.088388 0.02083,-0.020833 0.06044,0.00932 0.08839,0 0.0625,-0.020833 0.130192,-0.041804 0.176777,-0.088388 0.02083,-0.020833 -0.01318,-0.062036 0,-0.088388 0.01863,-0.037268 0.06976,-0.051121 0.08839,-0.088388 0.01318,-0.026352 -0.02083,-0.067555 0,-0.088388 0.182879,-0.1828786 -0.0071,0.2794628 0.176777,-0.088388 0.01318,-0.026352 -0.02083,-0.067555 0,-0.088388 0.04167,-0.041667 0.124072,0.026352 0.176777,0 0.367851,-0.1839256 -0.09449,0.0061 0.08839,-0.1767767 0.04167,-0.041667 0.124072,0.026352 0.176777,0 0.03727,-0.018634 0.05112,-0.069754 0.08839,-0.088388 0.02635,-0.013176 0.06204,0.013176 0.08839,0 0.07454,-0.037268 0.102241,-0.1395089 0.176776,-0.1767767 0.02635,-0.013176 0.07521,0.026352 0.08839,0 0.02635,-0.052705 0,-0.1178512 0,-0.1767767 0,-0.029463 -0.02083,-0.067555 0,-0.088388 0.02083,-0.020833 0.06204,0.013176 0.08839,0 0.293147,-0.2931472 -0.08333,0.041667 0.176777,-0.088388 0.06234,-0.031169 0.114439,-0.1456079 0.176776,-0.1767767 0.02635,-0.013176 0.06204,0.013176 0.08839,0 0.162724,-0.081362 0.01405,-0.1838029 0.176776,-0.2651651 0.0527,-0.026352 0.13511,0.041667 0.176777,0 0.02083,-0.020833 -0.02635,-0.075212 0,-0.088388 0.03228,-0.016138 0.424738,0.017204 0.441942,0 0.04167,-0.041667 -0.04167,-0.13511 0,-0.1767767 0.04167,-0.041667 0.13511,0.041667 0.176777,0 0.02083,-0.020833 -0.02083,-0.067555 0,-0.088388 0.04167,-0.041667 0.13511,0.041667 0.176776,0 0,-0.2357022 -0.02946,0.029463 0.08839,-0.088388 0.02083,-0.020833 -0.02083,-0.067555 0,-0.088388 0.0091,-0.00911 0.419907,0.00734 0.441941,0 0.03953,-0.013176 0.05112,-0.069754 0.08839,-0.088388 0.02635,-0.013176 0.06204,0.013176 0.08839,0 0.03727,-0.018634 0.05112,-0.069754 0.08839,-0.088388 0.02635,-0.013176 0.05893,0 0.08839,0 0.08901,0 0.481449,0.016293 0.53033,0 0.03953,-0.013176 0.05112,-0.069754 0.08839,-0.088388 0.05555,-0.027777 0.298,0.027777 0.353554,0 0.03727,-0.018634 0.05112,-0.069754 0.08839,-0.088388 0.0527,-0.026352 0.124072,0.026352 0.176777,0 0.03727,-0.018634 0.05112,-0.069755 0.08839,-0.088388 0.02635,-0.013176 0.06204,0.013176 0.08839,0 0.03727,-0.018634 0.05112,-0.069754 0.08839,-0.088388 0.0527,-0.026352 0.13511,0.041667 0.176776,0 0.02083,-0.020833 -0.02083,-0.067555 0,-0.088388 0.02083,-0.020833 0.06756,0.020833 0.08839,0 0.02083,-0.020833 -0.02083,-0.067555 0,-0.088388 0.04419,-0.044194 0.220971,0.044194 0.265165,0 0.02083,-0.020833 0,-0.058926 0,-0.088388 0.02946,0 0.06755,0.020833 0.08839,0 0.02083,-0.020833 -0.02083,-0.067555 0,-0.088388 0.02083,-0.020833 0.05893,0 0.08839,0 0.06265,0 0.507478,0.011426 0.530331,0 0.03727,-0.018634 0.05112,-0.069754 0.08839,-0.088388 0.0527,-0.026352 0.13511,0.041667 0.176777,0 0.02083,-0.020833 -0.02635,-0.075212 0,-0.088388 0.0527,-0.026352 0.124072,0.026352 0.176776,0 0.02635,-0.013176 -0.02083,-0.067555 0,-0.088388 0.01807,-0.01807 0.23012,0.017523 0.265165,0 0.03727,-0.018634 0.05112,-0.069754 0.08839,-0.088388 0.02635,-0.013176 0.05892,0 0.08839,0 0.147314,0 0.294628,0 0.441942,0 0.02946,0 0.05892,0 0.08839,0 0.02946,0 0.06204,0.013176 0.08839,0 0.03727,-0.018634 0.05112,-0.0697545 0.08839,-0.0883884 0.0269,-0.0134498 0.225358,0 0.265165,0 0.176777,0 0.353553,0 0.53033,0 0.53033,0 1.06066,0 1.59099,0 0.265165,0 0.53033,0 0.795495,0 0.02946,0 0.05893,0 0.08839,0 0.02946,0 0.06756,-0.0208333 0.08839,0 0.02083,0.0208333 -0.02635,0.0752122 0,0.0883884 0.05718,0.028591 0.321803,-0.03175 0.353553,0 0.182879,0.1828786 -0.279462,-0.00715 0.08839,0.1767767 0.0527,0.026352 0.13511,-0.041667 0.176776,0 0.182879,0.1828786 -0.279462,-0.00715 0.08839,0.1767767 0.0527,0.026352 0.13511,-0.041667 0.176776,0 0.02083,0.020833 -0.01318,0.062036 0,0.088388 0.183926,0.3678512 -0.0061,-0.09449 0.176777,0.088388 0.02083,0.020833 -0.02083,0.067555 0,0.088388 0.04659,0.046585 0.121961,0.051844 0.176777,0.088388 0.104006,0.069337 0.165165,0.190165 0.265165,0.265165 0.0527,0.039528 0.130192,0.041804 0.176777,0.088388 0.107655,0.1076555 0.0414,0.1974782 0.176776,0.265165 0.02635,0.013176 0.06204,-0.013176 0.08839,0 0.02347,0.011734 0.253431,0.241697 0.265165,0.265165 0.01318,0.026352 -0.01318,0.062036 0,0.088388 0.01863,0.037268 0.06975,0.051121 0.08839,0.088388 0.01318,0.026352 -0.02083,0.067555 0,0.088388 0.02083,0.020833 0.06204,-0.013176 0.08839,0 0.106066,0.053033 0.159099,0.212132 0.265165,0.265165 0.12192,0.06096 0.07906,-0.1070431 0.176777,0.088388 0.01318,0.026352 -0.02083,0.067555 0,0.088388 0.04659,0.046585 0.130192,0.041804 0.176777,0.088388 0.04167,0.041667 -0.04167,0.13511 0,0.1767767 0.02083,0.020833 0.06204,-0.013176 0.08839,0 0.03727,0.018634 0.05112,0.069754 0.08839,0.088388 0.02635,0.013176 0.06755,-0.020833 0.08839,0 0.117851,0.1178511 -0.1875,0.084814 0.08839,0.1767767 0.0559,0.018634 0.124072,-0.026352 0.176777,0 0.02635,0.013176 -0.01318,0.062036 0,0.088388 0.01863,0.037268 0.05112,0.069754 0.08839,0.088388 0.02635,0.013176 0.06755,-0.020833 0.08839,0 0.02083,0.020833 -0.02083,0.067555 0,0.088388 0.02083,0.020833 0.06204,-0.013176 0.08839,0 0.03727,0.018634 0.05112,0.069754 0.08839,0.088388 0.02635,0.013176 0.06755,-0.020833 0.08839,0 0.02083,0.020833 -0.02083,0.067555 0,0.088388 0.04167,0.041667 0.13511,-0.041667 0.176776,0 0.02083,0.020833 -0.02083,0.067555 0,0.088388 0.02083,0.020833 0.06755,-0.020833 0.08839,0 0.02083,0.020833 0,0.058926 0,0.088388 0.05893,0.029463 0.130192,0.041804 0.176776,0.088388 0.02083,0.020833 -0.02083,0.067555 0,0.088388 0.02083,0.020833 0.06755,-0.020833 0.08839,0 0.04658,0.046585 0.06756,0.1142767 0.08839,0.1767767 0.0093,0.027951 -0.02083,0.067555 0,0.088388 0.02083,0.020833 0.06204,-0.013176 0.08839,0 0.03727,0.018634 0.05112,0.069754 0.08839,0.088388 0.02635,0.013176 0.06756,-0.020833 0.08839,0 0.04167,0.041667 -0.04167,0.1351101 0,0.1767767 0.02083,0.020833 0.06755,-0.020833 0.08839,0 0.0442,0.044194 -0.04419,0.2209709 0,0.2651651 0.02083,0.020833 0.06756,-0.020833 0.08839,0 0.02083,0.020833 0,0.058925 0,0.088388 0.02946,0 0.06756,-0.020833 0.08839,0 0.04167,0.041667 -0.02635,0.1240721 0,0.1767767 0.01863,0.037268 0.06976,0.051121 0.08839,0.088388 0.01143,0.022853 0,0.4676802 0,0.53033 0,0.029463 -0.01318,0.062036 0,0.088388 0.01863,0.037268 0.06975,0.05112 0.08839,0.088388 0.01318,0.026352 -0.01318,0.062036 0,0.088388 0.01863,0.037268 0.06975,0.05112 0.08839,0.088388 0.03536,0.070711 -0.03535,0.1944544 0,0.2651651 0.01863,0.037268 0.06976,0.05112 0.08839,0.088388 0.01318,0.026352 -0.01318,0.062036 0,0.088388 0.01863,0.037268 0.07521,0.04886 0.08839,0.088388 0.01863,0.055902 0,0.1178512 0,0.1767767 0,0.029463 -0.01318,0.062036 0,0.088388 0.01863,0.037268 0.06975,0.05112 0.08839,0.088388 0.01318,0.026352 -0.02083,0.067555 0,0.088388 0.02083,0.020833 0.06755,-0.020833 0.08839,0 0.117647,0.117647 -0.117647,0.05913 0,0.1767767 0.02083,0.020833 0.06756,-0.020833 0.08839,0 0.04167,0.041667 -0.04167,0.13511 0,0.1767767 0.02083,0.020833 0.06755,-0.020833 0.08839,0 0.04167,0.041667 -0.02635,0.124072 0,0.1767767 0.01863,0.037268 0.06976,0.05112 0.08839,0.088388 0.04683,0.093659 -0.04683,0.083118 0,0.1767767 0.01863,0.037268 0.06975,0.051121 0.08839,0.088388 0.02635,0.052705 -0.02635,0.1240721 0,0.1767767 0.01863,0.037268 0.06975,0.051121 0.08839,0.088388 0.02635,0.052705 -0.04167,0.13511 0,0.1767767 0.02083,0.020833 0.06756,-0.020833 0.08839,0 0.02083,0.020833 -0.02083,0.067555 0,0.088388 0.02083,0.020833 0.06756,-0.020833 0.08839,0 0.02083,0.020833 0,0.058926 0,0.088388 0,0.07967 -0.01854,0.3863102 0,0.4419417 0.02083,0.0625 0.06755,0.1142767 0.08839,0.1767767 0.02027,0.060796 -0.02607,0.2130143 0,0.2651653 0.01863,0.03727 0.06976,0.05112 0.08839,0.08839 0.01598,0.03196 0,0.380464 0,0.441942 0,0.383016 0,0.766032 0,1.149048 0,0.04622 -0.01162,0.330313 0,0.353554 0.01863,0.03727 0.06975,0.05112 0.08839,0.08839 0.01345,0.0269 0,0.225359 0,0.265165 0,0.176777 0,0.353554 0,0.53033 0,0.471405 0,0.942809 0,1.414214 0,0.353553 0,0.707107 0,1.06066 0,0.06148 0.01598,0.409978 0,0.441942 -0.01863,0.03727 -0.06975,0.05112 -0.08839,0.08839 -0.01318,0.02635 0.02083,0.06755 0,0.08839 -0.02083,0.02083 -0.06756,-0.02083 -0.08839,0 -0.04167,0.04167 0.04167,0.13511 0,0.176777 -0.02083,0.02083 -0.06755,-0.02083 -0.08839,0 -0.04167,0.04167 0.02635,0.124072 0,0.176777 -0.01863,0.03727 -0.06975,0.05112 -0.08839,0.08839 -0.01318,0.02635 0,0.05893 0,0.08839 -0.02946,0.02946 -0.06975,0.05112 -0.08839,0.08839 -0.01318,0.02635 0.02083,0.06756 0,0.08839 -0.107655,0.107656 -0.197478,0.0414 -0.265165,0.176777 0,0.235702 0.02946,-0.02946 -0.08839,0.08839 -0.02083,0.02083 0.02083,0.06755 0,0.08839 -0.182879,0.182878 0.0071,-0.279463 -0.176777,0.08839 -0.02635,0.0527 0.02635,0.124072 0,0.176777 -0.05303,0.106066 -0.212132,0.159099 -0.265165,0.265165 -0.01318,0.02635 0.02083,0.06756 0,0.08839 -0.04167,0.04167 -0.13511,-0.04167 -0.176776,0 -0.02083,0.02083 0.02083,0.06755 0,0.08839 -0.04167,0.04167 -0.124073,-0.02635 -0.176777,0 -0.07454,0.03727 -0.102241,0.139509 -0.176777,0.176777 -0.02635,0.01318 -0.06756,-0.02083 -0.08839,0 -0.02083,0.02083 0.02083,0.06755 0,0.08839 -0.02083,0.02083 -0.06204,-0.01318 -0.08839,0 -0.106066,0.05303 -0.159099,0.212132 -0.265165,0.265165 -0.02635,0.01318 -0.06755,-0.02083 -0.08839,0 -0.02083,0.02083 0.02635,0.07521 0,0.08839 -0.0527,0.02635 -0.124072,-0.02635 -0.176777,0 -0.02635,0.01318 0.02083,0.06755 0,0.08839 -0.04658,0.04659 -0.12196,0.05184 -0.176776,0.08839 -0.06934,0.04623 -0.102241,0.139509 -0.176777,0.176777 -0.03505,0.01752 -0.247095,-0.01807 -0.265165,0 -0.02083,0.02083 0.02083,0.06755 0,0.08839 -0.02083,0.02083 -0.06204,-0.01318 -0.08839,0 -0.106066,0.05303 -0.159099,0.212132 -0.265165,0.265165 -0.02635,0.01318 -0.05893,0 -0.08839,0 -0.05893,0.02946 -0.12196,0.05184 -0.176777,0.08839 -0.03467,0.02311 -0.05112,0.06975 -0.08839,0.08839 -0.05475,0.02738 -0.327401,-0.02615 -0.353553,0 -0.02083,0.02083 0.02083,0.06756 0,0.08839 -0.04167,0.04167 -0.124072,-0.02635 -0.176777,0 -0.03727,0.01863 -0.05112,0.06975 -0.08839,0.08839 -0.0527,0.02635 -0.124072,-0.02635 -0.176777,0 -0.106066,0.05303 -0.159099,0.212132 -0.265165,0.265165 -0.03933,0.01966 -0.313126,-0.01348 -0.353553,0 -0.03953,0.01318 -0.05112,0.06975 -0.08839,0.08839 -0.0527,0.02635 -0.124072,-0.02635 -0.176776,0 -0.03727,0.01863 -0.05112,0.06975 -0.08839,0.08839 -0.0527,0.02635 -0.120875,-0.01863 -0.176777,0 -0.0625,0.02083 -0.114276,0.06755 -0.176776,0.08839 -0.0559,0.01863 -0.13511,-0.04167 -0.176777,0 -0.02083,0.02083 0.02635,0.07521 0,0.08839 -0.07071,0.03536 -0.194454,-0.03536 -0.265165,0 -0.03727,0.01863 -0.05112,0.06975 -0.08839,0.08839 -0.02635,0.01318 -0.06204,-0.01318 -0.08839,0 -0.03727,0.01863 -0.05112,0.06975 -0.08839,0.08839 -0.02635,0.01318 -0.06755,-0.02083 -0.08839,0 -0.02083,0.02083 0.02083,0.06756 0,0.08839 -0.02083,0.02083 -0.06204,-0.01318 -0.08839,0 -0.03727,0.01863 -0.05112,0.06976 -0.08839,0.08839 -0.02635,0.01318 -0.06756,-0.02083 -0.08839,0 -0.02083,0.02083 0.02083,0.06755 0,0.08839 -0.02083,0.02083 -0.06755,-0.02083 -0.08839,0 -0.02083,0.02083 0.02083,0.06756 0,0.08839 -0.04167,0.04167 -0.124072,-0.02635 -0.176776,0 -0.03727,0.01863 -0.05112,0.06976 -0.08839,0.08839 -0.05555,0.02778 -0.297999,-0.02778 -0.353553,0 -0.03727,0.01863 -0.05112,0.06975 -0.08839,0.08839 -0.0527,0.02635 -0.13511,-0.04167 -0.176776,0 -0.02083,0.02083 0.02083,0.06756 0,0.08839 -0.02083,0.02083 -0.06044,-0.0093 -0.08839,0 -0.0625,0.02083 -0.110895,0.08839 -0.176776,0.08839 -0.117851,0 0.147314,-0.20624 -0.08839,-0.08839 -0.03727,0.01863 -0.05112,0.06975 -0.08839,0.08839 -0.235294,0.117647 0.05852,-0.117647 -0.176777,0 -0.03727,0.01863 -0.05112,0.06975 -0.08839,0.08839 -0.02635,0.01318 -0.05893,0 -0.08839,0 -0.02946,0.02946 -0.05112,0.06975 -0.08839,0.08839 -0.02635,0.01318 -0.05892,0 -0.08839,0 -0.02946,0 -0.05893,0 -0.08839,0 -0.147314,0 -0.294628,0 -0.441942,0 -0.02946,0 -0.06204,-0.01318 -0.08839,0 -0.03727,0.01863 -0.05112,0.06975 -0.08839,0.08839 -0.0269,0.01345 -0.225359,0 -0.265165,0 -0.206239,0 -0.412479,0 -0.618718,0 -0.176777,0 -0.353554,0 -0.53033,0 -0.02946,0 -0.05893,0 -0.08839,0 -0.02946,0 -0.06204,0.01318 -0.08839,0 -0.03727,-0.01863 -0.04886,-0.07521 -0.08839,-0.08839 -0.04043,-0.01348 -0.314223,0.01966 -0.353554,0 -0.03727,-0.01863 -0.05112,-0.06976 -0.08839,-0.08839 -0.02635,-0.01318 -0.06756,0.02083 -0.08839,0 -0.02083,-0.02083 0.02083,-0.06756 0,-0.08839 -0.04167,-0.04167 -0.124072,0.02635 -0.176776,0 -0.03727,-0.01863 -0.05112,-0.06976 -0.08839,-0.08839 -0.07071,-0.03536 -0.194454,0.03535 -0.265165,0 -0.03727,-0.01863 -0.05112,-0.06976 -0.08839,-0.08839 -0.0527,-0.02635 -0.13511,0.04167 -0.176777,0 -0.02083,-0.02083 0.02083,-0.06755 0,-0.08839 -0.02127,-0.02127 -0.332284,0.02127 -0.353553,0 -0.117851,-0.117851 0.147314,-0.08839 -0.08839,-0.08839 -0.02946,0 -0.05893,0 -0.08839,0 -0.02946,0 -0.06755,0.02083 -0.08839,0 -0.02083,-0.02083 0.02083,-0.06756 0,-0.08839 -0.04419,-0.04419 -0.220971,0.04419 -0.265165,0 -0.02083,-0.02083 0.02083,-0.06755 0,-0.08839 -0.04167,-0.04167 -0.124072,0.02635 -0.176777,0 -0.03727,-0.01863 -0.05112,-0.06976 -0.08839,-0.08839 -0.05271,-0.02635 -0.124072,0.02635 -0.176777,0 -0.07454,-0.03727 -0.102241,-0.139508 -0.176777,-0.176776 -0.02635,-0.01318 -0.06755,0.02083 -0.08839,0 -0.02083,-0.02083 0.02083,-0.06756 0,-0.08839 -0.02083,-0.02083 -0.06204,0.01318 -0.08839,0 -0.03727,-0.01863 -0.05112,-0.06975 -0.08839,-0.08839 -0.0527,-0.02635 -0.124072,0.02635 -0.176776,0 -0.03727,-0.01863 -0.05112,-0.06975 -0.08839,-0.08839 -0.02635,-0.01318 -0.06204,0.01318 -0.08839,0 -0.03727,-0.01863 -0.05893,-0.05893 -0.08839,-0.08839 -0.02946,-0.02946 -0.06976,-0.05112 -0.08839,-0.08839 -0.01752,-0.03505 0.01807,-0.247095 0,-0.265165 -0.02083,-0.02083 -0.06755,0.02083 -0.08839,0 -0.0036,-0.0036 0,-0.321094 0,-0.353553"
       id="path3009"
       inkscape:connector-curvature="0" />
    <path
       style="fill:#ffffff;stroke:#000000;stroke-width:1px;stroke-linecap:butt;stroke-linejoin:miter;stroke-opacity:1"
       d="m 16.086679,6.1022141 c -0.30762,0.1032619 0.01102,0.3812141 -0.08839,0.5303301 -0.03654,0.054816 -0.121961,0.051844 -0.176777,0.088388 -0.135173,0.090116 -0.06944,0.1220466 -0.176776,0.2651651 -0.05,0.066667 -0.126777,0.11011 -0.176777,0.1767767 -0.406949,0.5425986 0.172971,-0.1691647 -0.08839,0.3535534 -0.03727,0.074536 -0.133903,0.1053189 -0.176777,0.1767767 -0.04793,0.079892 -0.04672,0.1818317 -0.08839,0.265165 -0.01863,0.037268 -0.06527,0.05372 -0.08839,0.088388 -0.03654,0.054816 -0.05893,0.1178511 -0.08839,0.1767767 -0.02946,0.058926 -0.07241,0.1128629 -0.08839,0.1767766 -0.01429,0.057166 0.01863,0.120875 0,0.1767767 -0.01318,0.039529 -0.07521,0.04886 -0.08839,0.088388 -0.01863,0.055902 0.01863,0.120875 0,0.1767767 -0.01318,0.039528 -0.07521,0.04886 -0.08839,0.088388 -0.01863,0.055902 0.01863,0.120875 0,0.1767767 -0.02635,0.079057 -0.150425,0.09772 -0.176777,0.1767767 -0.02723,0.081693 0.02748,0.3594937 0,0.4419418 -0.02083,0.0625 -0.06756,0.1142767 -0.08839,0.1767767 -0.01923,0.057688 0,0.4246523 0,0.5303303 0,0.20624 0,0.412479 0,0.618719 0,0.08839 -0.02795,0.181312 0,0.265165 0.01318,0.03953 0.07521,0.04886 0.08839,0.08839 0.01624,0.04873 0,0.45532 0,0.53033 0,0.147314 0,0.294628 0,0.441942 0,0.02946 0.0093,0.06044 0,0.08839 -0.02083,0.0625 -0.06756,0.114277 -0.08839,0.176777 -0.01797,0.05393 0,0.462065 0,0.53033 0,0.03981 -0.01345,0.238265 0,0.265165 0.01863,0.03727 0.06975,0.05112 0.08839,0.08839 0.02635,0.0527 -0.02635,0.124072 0,0.176777 0.01863,0.03727 0.06975,0.05112 0.08839,0.08839 0.01318,0.02635 -0.01318,0.06204 0,0.08839 0.02353,0.04706 0.153248,0.129718 0.176777,0.176776 0.01318,0.02635 -0.01318,0.06204 0,0.08839 0.01863,0.03727 0.06976,0.05112 0.08839,0.08839 0.01318,0.02635 -0.01318,0.06204 0,0.08839 0.01863,0.03727 0.06975,0.05112 0.08839,0.08839 0.01318,0.02635 -0.01318,0.06204 0,0.08839 0.03727,0.07454 0.150424,0.09772 0.176776,0.176777 0.01863,0.0559 -0.01863,0.120875 0,0.176777 0.01318,0.03953 0.05893,0.05893 0.08839,0.08839 0.02946,0.02946 0.05893,0.05893 0.08839,0.08839 0.08839,0.08839 0.165165,0.190165 0.265165,0.265165 0.0527,0.03953 0.121961,0.05185 0.176777,0.08839 0.03467,0.02311 0.05112,0.06975 0.08839,0.08839 0.64965,0.21655 0.04501,-0.02892 0.353554,0.176777 0.05482,0.03654 0.130192,0.0418 0.176776,0.08839 0.02083,0.02083 -0.02083,0.06756 0,0.08839 0.04167,0.04167 0.13511,-0.04167 0.176777,0 0.02083,0.02083 -0.02083,0.06755 0,0.08839 0.02083,0.02083 0.06204,-0.01318 0.08839,0 0.03727,0.01863 0.05112,0.06975 0.08839,0.08839 0.02635,0.01318 0.06756,-0.02083 0.08839,0 0.02083,0.02083 -0.01318,0.06204 0,0.08839 0.01863,0.03727 0.06976,0.05112 0.08839,0.08839 0.01318,0.02635 -0.02083,0.06756 0,0.08839 0.02083,0.02083 0.06204,-0.01318 0.08839,0 0.03727,0.01863 0.05372,0.06528 0.08839,0.08839 0.05482,0.03655 0.121961,0.05185 0.176777,0.08839 0.06934,0.04622 0.09772,0.150424 0.176777,0.176776 0.0559,0.01863 0.120875,-0.01863 0.176776,0 0.03953,0.01318 0.05112,0.06976 0.08839,0.08839 0.02635,0.01318 0.05893,0 0.08839,0 0.02946,0.02946 0.05112,0.06975 0.08839,0.08839 0.02635,0.01318 0.06756,-0.02083 0.08839,0 0.02083,0.02083 -0.02083,0.06755 0,0.08839 0.02083,0.02083 0.06204,-0.01318 0.08839,0 0.07454,0.03727 0.102241,0.139508 0.176777,0.176776 0.260098,0.130049 -0.08332,-0.130049 0.176776,0 0.367851,0.183926 -0.09449,-0.0061 0.08839,0.176777 0.02083,0.02083 0.06755,-0.02083 0.08839,0 0.02083,0.02083 -0.02083,0.06755 0,0.08839 0.02083,0.02083 0.06204,-0.01318 0.08839,0 0.07454,0.03727 0.09772,0.150425 0.176777,0.176777 0.0559,0.01863 0.120875,-0.01863 0.176777,0 0.03953,0.01318 0.04886,0.07521 0.08839,0.08839 0.04043,0.01348 0.314223,-0.01966 0.353554,0 0.03727,0.01863 0.05112,0.06976 0.08839,0.08839 0.02635,0.01318 0.05892,0 0.08839,0 0.02946,0 0.05893,0 0.08839,0 0.07115,0 0.298076,-0.01849 0.353553,0 0.0625,0.02083 0.114277,0.06756 0.176777,0.08839 0.04987,0.01662 0.207084,0 0.265165,0 0.206239,0 0.412479,0 0.618718,0 0.471405,0 0.942809,0 1.414214,0 0.06265,0 0.507477,-0.01143 0.53033,0 0.03727,0.01863 0.05112,0.06975 0.08839,0.08839 0.103643,0.05182 0.104907,-0.05245 0.176777,-0.08839 0.05367,-0.02684 0.476659,0.02684 0.53033,0 0.03727,-0.01863 0.05112,-0.06975 0.08839,-0.08839 0.03505,-0.01752 0.247095,0.01807 0.265165,0 0.02083,-0.02083 -0.02083,-0.06755 0,-0.08839 0.02083,-0.02083 0.06204,0.01318 0.08839,0 0.03727,-0.01863 0.05112,-0.06975 0.08839,-0.08839 0.02635,-0.01318 0.05893,0 0.08839,0 0.05893,0 0.119611,0.01429 0.176777,0 0.426822,-0.106706 -0.0044,-0.042 0.265165,-0.176777 0.08341,-0.219183 0.238309,-0.04997 0.353553,-0.08839 0.160534,-0.05351 0.164036,-0.07565 0.265166,-0.176777 0.02946,-0.02946 0.05372,-0.06528 0.08839,-0.08839 0.05482,-0.03654 0.12196,-0.05184 0.176777,-0.08839 0.03467,-0.02311 0.05112,-0.06976 0.08839,-0.08839 0.02635,-0.01318 0.06204,0.01318 0.08839,0 0.201185,-0.201184 -0.01831,-0.02336 0.176777,-0.08839 0.640234,-0.213411 -0.139354,0.02548 0.265165,-0.176777 0.0527,-0.02635 0.124072,0.02635 0.176777,0 0.03727,-0.01863 0.05892,-0.05893 0.08839,-0.08839 0.02946,-0.02946 0.06975,-0.05112 0.08839,-0.08839 0.01318,-0.02635 -0.01634,-0.06387 0,-0.08839 0.09245,-0.138675 0.261104,-0.214878 0.353554,-0.353553 0.01634,-0.02451 -0.01318,-0.06204 0,-0.08839 0.134773,-0.269545 0.07007,0.161658 0.176776,-0.265165 0,-0.402369 -0.04167,-0.0051 0.08839,-0.265165 0.02871,-0.05742 -0.02803,-0.385875 0,-0.441941 0.01863,-0.03727 0.06975,-0.05112 0.08839,-0.08839 0.01318,-0.02635 0,-0.05893 0,-0.08839 0,-0.02946 0,-0.05893 0,-0.08839 0,-0.176776 0,-0.353553 0,-0.53033 0,-0.559792 0,-1.119585 0,-1.679378 0,-0.294628 0,-0.589256 0,-0.883884 0,-0.05806 0.01039,-0.332768 0,-0.353553 -0.01318,-0.02635 -0.06756,0.02083 -0.08839,0 -0.0028,-0.0028 0,-0.243729 0,-0.265165 0,-0.294628 0,-0.589256 0,-0.883884 0,-0.058926 0,-0.1178511 0,-0.1767767 0,-0.029463 0.01318,-0.062036 0,-0.088388 -0.01863,-0.037268 -0.07521,-0.04886 -0.08839,-0.088388 -0.01863,-0.055902 0.02635,-0.1240721 0,-0.1767767 -0.01318,-0.026352 -0.07521,0.026352 -0.08839,0 -0.02718,-0.054367 0.0282,-0.3855466 0,-0.4419417 -0.01863,-0.037268 -0.06975,-0.051121 -0.08839,-0.088388 -0.02635,-0.052705 0.01863,-0.120875 0,-0.1767767 -0.02083,-0.0625 -0.06755,-0.1142767 -0.08839,-0.1767767 -0.02615,-0.078439 0.02894,-0.3840636 0,-0.4419417 -0.03727,-0.074536 -0.139508,-0.1022411 -0.176776,-0.1767767 -0.01318,-0.026352 0,-0.058926 0,-0.088388 0,-0.058926 0.01863,-0.120875 0,-0.1767767 -0.02622,-0.078673 -0.238941,-0.1864924 -0.265165,-0.2651651 -0.01863,-0.055902 0,-0.1178511 0,-0.1767767 0,-0.029463 0.01318,-0.062036 0,-0.088388 -0.01863,-0.037268 -0.06976,-0.051121 -0.08839,-0.088388 -0.01318,-0.026352 0.01318,-0.062036 0,-0.088388 -0.08136,-0.1627243 -0.183803,-0.014052 -0.265165,-0.1767767 -0.02635,-0.052705 0.04167,-0.13511 0,-0.1767767 -0.04658,-0.046585 -0.12196,-0.051844 -0.176776,-0.088388 -0.07627,-0.050847 -0.196127,-0.1961261 -0.265165,-0.265165 -0.02946,-0.029463 -0.05112,-0.069754 -0.08839,-0.088388 -0.02635,-0.013176 -0.06755,0.020833 -0.08839,0 -0.02083,-0.020833 0.01318,-0.062036 0,-0.088388 -0.183926,-0.3678511 0.0061,0.09449 -0.176777,-0.088388 -0.02083,-0.020833 0.02083,-0.067555 0,-0.088388 -0.02083,-0.020833 -0.06204,0.013176 -0.08839,0 -0.03727,-0.018634 -0.05112,-0.069754 -0.08839,-0.088388 -0.02635,-0.013176 -0.06204,0.013176 -0.08839,0 -0.201184,-0.2011845 0.01831,-0.023361 -0.176777,-0.088388 -0.214361,-0.071454 -0.235431,-0.2135375 -0.441941,-0.265165 -0.05717,-0.014292 -0.117851,0 -0.176777,0 -0.02946,0 -0.06204,0.013176 -0.08839,0 -0.07454,-0.037268 -0.09593,-0.1565654 -0.176777,-0.1767767 -0.08575,-0.021437 -0.176777,0 -0.265165,0 -0.20624,0 -0.412479,0 -0.618719,0 -0.02946,0 -0.05892,0 -0.08839,0 -0.02946,0 -0.06756,0.020833 -0.08839,0 -0.02083,-0.020833 0.02083,-0.067555 0,-0.088388 -0.0189,-0.018897 -0.304823,0.016244 -0.353554,0 -0.0625,-0.020833 -0.114276,-0.067555 -0.176776,-0.088388 -0.05548,-0.018492 -0.282398,0 -0.353554,0 -0.294628,0 -0.589255,0 -0.883883,0 -0.176777,0 -0.353554,0 -0.53033,0 -0.05893,0 -0.124072,-0.026352 -0.176777,0 -0.02635,0.013176 0.02635,0.075212 0,0.088388 -0.07906,0.039529 -0.176777,0 -0.265165,0 -0.559793,0 -1.119586,0 -1.679379,0 -0.235702,0 -0.471404,0 -0.707106,0 -0.03981,0 -0.238266,-0.01345 -0.265165,0 -0.03727,0.018634 -0.05112,0.069755 -0.08839,0.088388 -0.03196,0.015982 -0.380464,0 -0.441942,0 -0.02946,0 -0.06755,-0.020833 -0.08839,0 -0.02083,0.020833 0.02083,0.067555 0,0.088388 -0.04167,0.041667 -0.124072,-0.026352 -0.176777,0 -0.07453,0.037268 -0.102241,0.1395089 -0.176776,0.1767767 -0.0527,0.026352 -0.13511,-0.041667 -0.176777,0 -0.02083,0.020833 0.01318,0.062036 0,0.088388 -0.01863,0.037268 -0.05893,0.058925 -0.08839,0.088388 -0.117851,0.1178511 -0.235703,0.2357023 -0.353554,0.3535534 z"
       id="path3011"
       inkscape:connector-curvature="0" />
  </g>
</svg>
